<svg xmlns="http://www.w3.org/2000/svg" viewBox="0 0 100 100" width="100" height="100">
  <!-- Fig Tree - Stage 3: Growing -->
  <defs>
    <linearGradient id="trunk" x1="0%" y1="0%" x2="100%" y2="0%">
      <stop offset="0%" stop-color="#5D4037"/>
      <stop offset="50%" stop-color="#795548"/>
      <stop offset="100%" stop-color="#4E342E"/>
    </linearGradient>
    <linearGradient id="leaf" x1="0%" y1="0%" x2="100%" y2="100%">
      <stop offset="0%" stop-color="#66BB6A"/>
      <stop offset="100%" stop-color="#388E3C"/>
    </linearGradient>
  </defs>
  
  <path d="M50 90 Q50 70 50 50" stroke="url(#trunk)" stroke-width="5" fill="none"/>
  <path d="M50 60 Q40 55 35 50" stroke="url(#trunk)" stroke-width="2" fill="none"/>
  <path d="M50 50 Q60 45 65 40" stroke="url(#trunk)" stroke-width="2" fill="none"/>
  
  <path d="M30 50 Q25 38 35 30 Q42 40 40 50 Q35 55 30 50" fill="url(#leaf)"/>
  <path d="M60 40 Q55 28 65 20 Q72 30 70 40 Q65 45 60 40" fill="url(#leaf)"/>
  <path d="M45 35 Q40 25 50 18 Q57 27 55 35 Q50 42 45 35" fill="url(#leaf)"/>
</svg>
