<svg xmlns="http://www.w3.org/2000/svg" viewBox="0 0 100 100" width="100" height="100">
  <!-- Grapevine - Stage 3: Growing -->
  <defs>
    <linearGradient id="vineGrad" x1="0%" y1="0%" x2="0%" y2="100%">
      <stop offset="0%" stop-color="#6D4C41"/>
      <stop offset="100%" stop-color="#4E342E"/>
    </linearGradient>
    <linearGradient id="leafGrad" x1="0%" y1="0%" x2="100%" y2="100%">
      <stop offset="0%" stop-color="#81C784"/>
      <stop offset="100%" stop-color="#4CAF50"/>
    </linearGradient>
  </defs>
  
  <path d="M50 90 Q48 70 50 50 Q52 35 55 25" stroke="url(#vineGrad)" stroke-width="4" fill="none"/>
  <path d="M50 60 Q38 55 30 50" stroke="url(#vineGrad)" stroke-width="2" fill="none"/>
  <path d="M52 40 Q62 35 70 35" stroke="url(#vineGrad)" stroke-width="2" fill="none"/>
  
  <path d="M30 50 Q25 42 30 36 Q35 42 40 36 Q45 42 40 50 Q35 55 30 50" fill="url(#leafGrad)"/>
  <path d="M65 35 Q60 28 65 22 Q70 28 75 22 Q80 28 75 35 Q70 40 65 35" fill="url(#leafGrad)"/>
  <path d="M50 30 Q45 24 50 18 Q55 24 60 18 Q65 24 60 30 Q55 35 50 30" fill="url(#leafGrad)"/>
</svg>
