<svg xmlns="http://www.w3.org/2000/svg" viewBox="0 0 100 100" width="100" height="100">
  <!-- Olive Tree - Stage 5: Golden -->
  <defs>
    <radialGradient id="glow" cx="50%" cy="50%" r="60%">
      <stop offset="0%" stop-color="#FFF8E1" stop-opacity="0.6"/>
      <stop offset="100%" stop-color="#FFD54F" stop-opacity="0"/>
    </radialGradient>
    <linearGradient id="trunk" x1="0%" y1="0%" x2="100%" y2="0%">
      <stop offset="0%" stop-color="#6D4C41"/>
      <stop offset="50%" stop-color="#8D6E63"/>
      <stop offset="100%" stop-color="#5D4037"/>
    </linearGradient>
    <linearGradient id="goldenLeaf" x1="0%" y1="0%" x2="100%" y2="100%">
      <stop offset="0%" stop-color="#FFEB3B"/>
      <stop offset="100%" stop-color="#FFC107"/>
    </linearGradient>
    <radialGradient id="goldenOlive" cx="30%" cy="30%" r="60%">
      <stop offset="0%" stop-color="#FFD54F"/>
      <stop offset="100%" stop-color="#FF8F00"/>
    </radialGradient>
  </defs>
  
  <ellipse cx="50" cy="45" rx="40" ry="35" fill="url(#glow)"/>
  <ellipse cx="50" cy="90" rx="28" ry="5" fill="#8B6914"/>
  <path d="M50 88 Q48 70 50 50 Q52 40 55 30" stroke="url(#trunk)" stroke-width="5" fill="none"/>
  <path d="M50 55 Q38 52 30 48" stroke="url(#trunk)" stroke-width="2" fill="none"/>
  <path d="M52 45 Q62 42 70 38" stroke="url(#trunk)" stroke-width="2" fill="none"/>
  
  <ellipse cx="30" cy="48" rx="10" ry="5" fill="url(#goldenLeaf)" transform="rotate(-30, 30, 48)"/>
  <ellipse cx="35" cy="42" rx="8" ry="4" fill="url(#goldenLeaf)" transform="rotate(-20, 35, 42)"/>
  <ellipse cx="70" cy="38" rx="10" ry="5" fill="url(#goldenLeaf)" transform="rotate(30, 70, 38)"/>
  <ellipse cx="65" cy="32" rx="8" ry="4" fill="url(#goldenLeaf)" transform="rotate(20, 65, 32)"/>
  <ellipse cx="55" cy="30" rx="9" ry="4" fill="url(#goldenLeaf)" transform="rotate(5, 55, 30)"/>
  <ellipse cx="48" cy="25" rx="7" ry="3" fill="url(#goldenLeaf)" transform="rotate(-10, 48, 25)"/>
  
  <ellipse cx="38" cy="52" rx="3" ry="4" fill="url(#goldenOlive)"/>
  <ellipse cx="62" cy="42" rx="3" ry="4" fill="url(#goldenOlive)"/>
  <ellipse cx="52" cy="35" rx="2.5" ry="3.5" fill="url(#goldenOlive)"/>
  
  <circle cx="22" cy="25" r="2" fill="white" opacity="0.8"/>
  <circle cx="75" cy="50" r="1.5" fill="white" opacity="0.7"/>
  <path d="M52 8 L55 5 L58 8 L56 8 L55 6 L54 8 Z" fill="#FFD700"/>
</svg>
