<svg xmlns="http://www.w3.org/2000/svg" viewBox="0 0 100 100" width="100" height="100">
  <!-- Olive Tree - Stage 4: Flourishing -->
  <defs>
    <linearGradient id="trunk" x1="0%" y1="0%" x2="100%" y2="0%">
      <stop offset="0%" stop-color="#5D4037"/>
      <stop offset="50%" stop-color="#8D6E63"/>
      <stop offset="100%" stop-color="#4E342E"/>
    </linearGradient>
    <linearGradient id="oliveLeaf" x1="0%" y1="0%" x2="100%" y2="100%">
      <stop offset="0%" stop-color="#AED581"/>
      <stop offset="100%" stop-color="#689F38"/>
    </linearGradient>
    <radialGradient id="oliveFruit" cx="30%" cy="30%" r="60%">
      <stop offset="0%" stop-color="#7CB342"/>
      <stop offset="100%" stop-color="#558B2F"/>
    </radialGradient>
  </defs>
  
  <ellipse cx="50" cy="90" rx="28" ry="5" fill="#8B6914"/>
  <path d="M50 88 Q48 70 50 50 Q52 40 55 30" stroke="url(#trunk)" stroke-width="5" fill="none"/>
  <path d="M50 55 Q38 52 30 48" stroke="url(#trunk)" stroke-width="2" fill="none"/>
  <path d="M52 45 Q62 42 70 38" stroke="url(#trunk)" stroke-width="2" fill="none"/>
  
  <ellipse cx="30" cy="48" rx="10" ry="5" fill="url(#oliveLeaf)" transform="rotate(-30, 30, 48)"/>
  <ellipse cx="35" cy="42" rx="8" ry="4" fill="url(#oliveLeaf)" transform="rotate(-20, 35, 42)"/>
  <ellipse cx="70" cy="38" rx="10" ry="5" fill="url(#oliveLeaf)" transform="rotate(30, 70, 38)"/>
  <ellipse cx="65" cy="32" rx="8" ry="4" fill="url(#oliveLeaf)" transform="rotate(20, 65, 32)"/>
  <ellipse cx="55" cy="30" rx="9" ry="4" fill="url(#oliveLeaf)" transform="rotate(5, 55, 30)"/>
  <ellipse cx="48" cy="25" rx="7" ry="3" fill="url(#oliveLeaf)" transform="rotate(-10, 48, 25)"/>
  
  <ellipse cx="38" cy="52" rx="3" ry="4" fill="url(#oliveFruit)"/>
  <ellipse cx="62" cy="42" rx="3" ry="4" fill="url(#oliveFruit)"/>
  <ellipse cx="52" cy="35" rx="2.5" ry="3.5" fill="url(#oliveFruit)"/>
</svg>
